<svg id="Слой_1" data-name="Слой 1" xmlns="http://www.w3.org/2000/svg" xmlns:xlink="http://www.w3.org/1999/xlink" viewBox="0 0 465.17 980.94"><defs><style>.cls-1{fill:none;}.cls-2{clip-path:url(#clip-path);}.cls-3{fill:#f1f1f1;}.cls-4{clip-path:url(#clip-path-2);}.cls-5{clip-path:url(#clip-path-3);}.cls-6{clip-path:url(#clip-path-4);}.cls-7{clip-path:url(#clip-path-5);}.cls-8{fill:#3acff4;}.cls-9{clip-path:url(#clip-path-6);}.cls-10{fill:#d32737;}.cls-11{clip-path:url(#clip-path-7);}.cls-12{fill:#bb4496;}.cls-13{clip-path:url(#clip-path-8);}.cls-14{fill:#31559d;}.cls-15{clip-path:url(#clip-path-9);}.cls-16{clip-path:url(#clip-path-10);}.cls-17{clip-path:url(#clip-path-11);}.cls-18{clip-path:url(#clip-path-12);}.cls-19{fill:#fff;}.cls-20{fill:#ffe019;}.cls-21{fill:#030303;}.cls-22{clip-path:url(#clip-path-13);}.cls-23{clip-path:url(#clip-path-14);}.cls-24{clip-path:url(#clip-path-15);}.cls-25{clip-path:url(#clip-path-16);}</style><clipPath id="clip-path"><rect class="cls-1" y="25.32" width="465" height="225"/></clipPath><clipPath id="clip-path-2"><rect class="cls-1" y="267.12" width="465" height="225"/></clipPath><clipPath id="clip-path-3"><rect class="cls-1" y="511.72" width="465" height="225"/></clipPath><clipPath id="clip-path-4"><rect class="cls-1" y="756.33" width="465" height="225"/></clipPath><clipPath id="clip-path-5"><rect class="cls-1" y="750.7" width="465" height="17.25"/></clipPath><clipPath id="clip-path-6"><rect class="cls-1" y="503.29" width="465" height="17.25"/></clipPath><clipPath id="clip-path-7"><rect class="cls-1" y="261.49" width="465" height="17.25"/></clipPath><clipPath id="clip-path-8"><rect class="cls-1" y="19.7" width="465" height="17.25"/></clipPath><clipPath id="clip-path-9"><rect class="cls-1" x="101.22" y="241.81" width="255.75" height="62.25"/></clipPath><clipPath id="clip-path-10"><rect class="cls-1" x="104.03" y="0.02" width="255.75" height="62.25"/></clipPath><clipPath id="clip-path-11"><rect class="cls-1" x="101.22" y="486.42" width="255.75" height="62.25"/></clipPath><clipPath id="clip-path-12"><rect class="cls-1" x="36.55" y="84.37" width="138.75" height="138.75"/></clipPath><clipPath id="clip-path-13"><rect class="cls-1" x="101.22" y="731.02" width="255.75" height="62.25"/></clipPath><clipPath id="clip-path-14"><rect class="cls-1" x="39.36" y="323.35" width="136.5" height="136.5"/></clipPath><clipPath id="clip-path-15"><rect class="cls-1" x="36.55" y="576.39" width="136.5" height="136.5"/></clipPath><clipPath id="clip-path-16"><rect class="cls-1" x="39.36" y="818.18" width="136.5" height="136.5"/></clipPath></defs><title>graf</title><g class="cls-2"><rect class="cls-3" y="-94.93" width="465" height="465"/></g><g class="cls-4"><rect class="cls-3" y="146.9" width="465" height="465"/></g><g class="cls-5"><rect class="cls-3" y="391.51" width="465" height="465"/></g><g class="cls-6"><rect class="cls-3" y="636.11" width="465" height="465"/></g><g class="cls-7"><rect class="cls-8" y="526.83" width="465" height="465"/></g><g class="cls-9"><rect class="cls-10" y="279.41" width="465" height="465"/></g><g class="cls-11"><rect class="cls-12" y="37.62" width="465" height="465"/></g><g class="cls-13"><rect class="cls-14" y="-204.17" width="465" height="465"/></g><g class="cls-15"><rect class="cls-12" x="101.22" y="144.92" width="255.75" height="255.75"/></g><g class="cls-16"><rect class="cls-14" x="104.03" y="-96.88" width="255.75" height="255.75"/></g><g class="cls-17"><rect class="cls-10" x="101.22" y="389.52" width="255.75" height="255.75"/></g><g class="cls-18"><path class="cls-14" d="M175.3,153.74v.14a69.51,69.51,0,1,1,0-.14Z"/><path class="cls-19" d="M165.14,153.74q0,2.91-.28,5.8a56.16,56.16,0,0,1-.86,5.75q-.57,2.85-1.41,5.64a55.88,55.88,0,0,1-2,5.47q-1.11,2.68-2.48,5.25c-.92,1.71-1.91,3.37-3,5s-2.23,3.16-3.46,4.66-2.53,2.94-3.9,4.31-2.81,2.67-4.31,3.9a59.9,59.9,0,0,1-9.67,6.46q-2.57,1.36-5.25,2.49t-5.47,2a54.69,54.69,0,0,1-5.64,1.41q-2.85.57-5.75.86a56.3,56.3,0,0,1-5.8.28q-2.91,0-5.81-.28c-1.93-.19-3.84-.48-5.75-.86a54.5,54.5,0,0,1-5.63-1.41,51.14,51.14,0,0,1-5.47-2c-1.79-.77-3.52-1.6-5.2-2.47a56,56,0,0,1-5-3,58.07,58.07,0,0,1-4.67-3.46c-1.5-1.23-2.93-2.53-4.31-3.9a56.79,56.79,0,0,1-3.9-4.31q-1.84-2.25-3.46-4.66c-1.08-1.61-2.07-3.28-3-5a55.75,55.75,0,0,1-2.48-5.25c-.74-1.79-1.4-3.62-2-5.47a57.38,57.38,0,0,1-1.41-5.64,50.76,50.76,0,0,1-.85-5.75q-.29-2.9-.29-5.8t.29-5.81q.28-2.89.85-5.74c.38-1.9.85-3.79,1.41-5.64a49.8,49.8,0,0,1,2-5.47c.78-1.79,1.57-3.55,2.48-5.26a58,58,0,0,1,3-5c1.09-1.63,2.23-3.17,3.46-4.67s2.53-2.93,3.9-4.3,2.81-2.68,4.31-3.91,3.06-2.38,4.67-3.46,3.27-2.07,5-3A55.92,55.92,0,0,1,83.26,99c1.8-.74,3.61-1.39,5.47-2a55.15,55.15,0,0,1,5.63-1.41,50.76,50.76,0,0,1,5.75-.85q2.9-.29,5.81-.29t5.8.29q2.9.28,5.75.85T123.11,97a49.8,49.8,0,0,1,5.47,2c1.8.78,3.54,1.57,5.25,2.48a58,58,0,0,1,5,3c1.63,1.09,3.17,2.23,4.67,3.46a56.92,56.92,0,0,1,4.31,3.91q2.06,2.05,3.9,4.3a58.07,58.07,0,0,1,3.46,4.67c1.08,1.61,2.07,3.27,3,5a57.13,57.13,0,0,1,2.48,5.26,55.88,55.88,0,0,1,2,5.47q.84,2.77,1.41,5.64c.38,1.91.67,3.83.86,5.74S165.15,151.8,165.14,153.74Z"/><path class="cls-20" d="M175.3,153.74v.14H150l-37.11-.07h-7l3.24-6.21,24.16-46.3,4.7-9A69.36,69.36,0,0,1,175.3,153.74Z"/><path class="cls-21" d="M112.93,153.74a7,7,0,0,1-.13,1.37,6.61,6.61,0,0,1-.4,1.31,6.42,6.42,0,0,1-.65,1.21,6.29,6.29,0,0,1-.87,1.06,6.88,6.88,0,0,1-1.06.88,7,7,0,0,1-1.21.64,7.24,7.24,0,0,1-2.68.54,7,7,0,0,1-1.37-.14,6.91,6.91,0,0,1-1.32-.4,7,7,0,0,1-3.14-2.58,6.42,6.42,0,0,1-.65-1.21,7.35,7.35,0,0,1-.4-1.31,7.28,7.28,0,0,1,0-2.74,7.35,7.35,0,0,1,.4-1.31,6.42,6.42,0,0,1,.65-1.21,8.13,8.13,0,0,1,.87-1.07,8,8,0,0,1,1.06-.87,7.82,7.82,0,0,1,1.21-.65,7.68,7.68,0,0,1,1.32-.39,7,7,0,0,1,1.37-.14,6.9,6.9,0,0,1,1.36.14,7.68,7.68,0,0,1,1.32.39,7.82,7.82,0,0,1,1.21.65,8,8,0,0,1,1.06.87,6,6,0,0,1,.87,1.07,6.42,6.42,0,0,1,.65,1.21,6.61,6.61,0,0,1,.4,1.31A7,7,0,0,1,112.93,153.74Z"/><path d="M61.56,152.68a2.34,2.34,0,0,1-1.6.56,1.82,1.82,0,0,1-1.48-.64,2.2,2.2,0,0,1-.54-1.53,2.08,2.08,0,0,1,3.6-1.41,2.2,2.2,0,0,1,.62,1.57A1.82,1.82,0,0,1,61.56,152.68Zm2.89-4.16a4.51,4.51,0,0,0-1.77-1.64,5.61,5.61,0,0,0-2.64-.59,5.22,5.22,0,0,0-3.65,1.33,4.48,4.48,0,0,0-1.45,3.51,4.75,4.75,0,0,0,1.34,3.52A4.62,4.62,0,0,0,59.65,156a5.07,5.07,0,0,0,2.84-.88,4.52,4.52,0,0,1-.9,2.44,2.53,2.53,0,0,1-2.06.89,3,3,0,0,1-1.28-.32,6.46,6.46,0,0,1-.92-.53l-.37-.32-1.61,2.27a11.79,11.79,0,0,0,1.09.76,5.9,5.9,0,0,0,1.39.6,5.83,5.83,0,0,0,1.94.3,5.48,5.48,0,0,0,4.1-1.73,6.27,6.27,0,0,0,1.31-2.35,11.32,11.32,0,0,0,.48-3.47,9.9,9.9,0,0,0-1.21-5.14Z"/><path d="M157,153.84l-.14-.18a4.21,4.21,0,0,0-2.68-1.45l2.94-3.36v-2.23H148.3v2.74h4.51L150,152.62V155a7,7,0,0,1,1.92-.39,3.38,3.38,0,0,1,2,.52,1.79,1.79,0,0,1,.09,2.8,2.5,2.5,0,0,1-1.59.47,6.61,6.61,0,0,1-3.65-1.44l-1.32,2.55a8.47,8.47,0,0,0,4.84,1.69,5.89,5.89,0,0,0,3.93-1.29,4.38,4.38,0,0,0,1.53-3.55A4.13,4.13,0,0,0,157,153.84Z"/><path d="M107.76,200.79a2.17,2.17,0,0,1-1.55.58,2,2,0,0,1-1.54-.65,2.17,2.17,0,0,1-.61-1.55,1.9,1.9,0,0,1,.64-1.48,2.36,2.36,0,0,1,1.61-.56,1.92,1.92,0,0,1,1.51.63,2.25,2.25,0,0,1,.55,1.54A1.94,1.94,0,0,1,107.76,200.79Zm2.21-5.06a4.62,4.62,0,0,0-3.36-1.32,5.12,5.12,0,0,0-2.84.86,4.51,4.51,0,0,1,.89-2.44,2.55,2.55,0,0,1,2.07-.89,3.16,3.16,0,0,1,1.35.33,4.83,4.83,0,0,1,1,.54l.35.32,1.53-2.26a9.15,9.15,0,0,0-1.1-.78,6.78,6.78,0,0,0-3.32-.91,5.46,5.46,0,0,0-4.09,1.73,6.08,6.08,0,0,0-1.32,2.35,11.4,11.4,0,0,0-.49,3.48,9.58,9.58,0,0,0,1.24,5.1,4.29,4.29,0,0,0,1.74,1.64,5.64,5.64,0,0,0,2.64.59,5.25,5.25,0,0,0,3.66-1.32,4.5,4.5,0,0,0,1.45-3.52,4.66,4.66,0,0,0-1.37-3.5Z"/><polygon points="96.19 104.48 96.19 107.22 98.93 107.22 98.93 118.88 102.01 118.88 102.01 104.48 96.19 104.48"/><path d="M109.5,116l2.6-2.7a14,14,0,0,0,2.09-2.59,4.29,4.29,0,0,0,.56-2.13,4,4,0,0,0-1.41-3.23,4.89,4.89,0,0,0-3.27-1.18,5.49,5.49,0,0,0-3.06.8,8.19,8.19,0,0,0-2.22,2.36l2.57,1.54c.82-1.33,1.68-2,2.58-2a1.64,1.64,0,0,1,1.22.49,1.62,1.62,0,0,1,.46,1.2,2.64,2.64,0,0,1-.54,1.5,17.76,17.76,0,0,1-1.82,2.06L105,116.49v2.39h10.15V116Z"/></g><g class="cls-22"><rect class="cls-8" x="101.22" y="634.13" width="255.75" height="255.75"/></g><g class="cls-23"><path class="cls-12" d="M175.86,391.6v.14a68.38,68.38,0,1,1,0-.14Z"/><path class="cls-19" d="M165.87,391.59c0,1.91-.1,3.82-.28,5.71a57.21,57.21,0,0,1-.84,5.66c-.37,1.87-.84,3.72-1.39,5.54s-1.2,3.62-1.93,5.39-1.54,3.48-2.44,5.17-1.88,3.31-2.94,4.9a58.89,58.89,0,0,1-11.48,12.67q-2.22,1.81-4.59,3.4c-1.59,1.06-3.22,2-4.91,2.94a49.45,49.45,0,0,1-5.16,2.44,56.63,56.63,0,0,1-5.39,1.93c-1.83.55-3.67,1-5.54,1.39a54,54,0,0,1-5.66.84q-2.85.29-5.71.28t-5.71-.28q-2.85-.29-5.65-.84c-1.87-.37-3.72-.84-5.55-1.39a56.44,56.44,0,0,1-5.38-1.93c-1.76-.73-3.49-1.54-5.17-2.44s-3.32-1.88-4.9-2.94a58,58,0,0,1-16.07-16q-1.59-2.38-2.94-4.9a56.81,56.81,0,0,1-2.45-5.17c-.73-1.77-1.37-3.56-1.92-5.39A55.39,55.39,0,0,1,50.48,403q-.55-2.81-.84-5.66t-.28-5.71c0-1.9.09-3.81.28-5.71s.47-3.78.84-5.65a56.27,56.27,0,0,1,1.39-5.55c.55-1.82,1.19-3.62,1.92-5.38s1.55-3.48,2.45-5.17,1.88-3.31,2.94-4.9A58,58,0,0,1,75.25,343.2c1.58-1.06,3.22-2,4.9-2.94a48.74,48.74,0,0,1,5.17-2.45c1.76-.73,3.56-1.37,5.38-1.92a56.27,56.27,0,0,1,5.55-1.39c1.87-.37,3.76-.65,5.65-.84a57.15,57.15,0,0,1,5.71-.28q2.86,0,5.71.28t5.66.84a55.39,55.39,0,0,1,5.54,1.39c1.83.55,3.62,1.19,5.39,1.92a56.63,56.63,0,0,1,5.16,2.45q2.52,1.35,4.91,2.94c1.59,1.06,3.11,2.19,4.59,3.4a58.89,58.89,0,0,1,11.48,12.67q1.59,2.39,2.94,4.9a56.73,56.73,0,0,1,2.44,5.17c.73,1.76,1.38,3.56,1.93,5.38s1,3.68,1.39,5.55a54.21,54.21,0,0,1,.84,5.65A56.5,56.5,0,0,1,165.87,391.59Z"/><path class="cls-20" d="M175.86,391.74a67.76,67.76,0,0,1-8,31.9l-8.82-4.7L107.61,391.6l43.41.09h14.83Z"/><path class="cls-21" d="M114.51,391.6a6.7,6.7,0,0,1-.14,1.34,5.82,5.82,0,0,1-.39,1.29,6.29,6.29,0,0,1-.64,1.2,7.37,7.37,0,0,1-.85,1,6.31,6.31,0,0,1-1,.86,6.44,6.44,0,0,1-1.19.63,6.63,6.63,0,0,1-1.29.4,6.79,6.79,0,0,1-1.35.13,6.69,6.69,0,0,1-1.34-.13,6.52,6.52,0,0,1-1.3-.4,7,7,0,0,1-3.09-2.53,7.67,7.67,0,0,1-.64-1.2,7.37,7.37,0,0,1-.39-1.29,7.16,7.16,0,0,1,0-2.69,7.37,7.37,0,0,1,.39-1.29,7.57,7.57,0,0,1,.64-1.19,6.31,6.31,0,0,1,.86-1,6.62,6.62,0,0,1,2.23-1.49,6.52,6.52,0,0,1,1.3-.4,7.51,7.51,0,0,1,1.34-.13,7.71,7.71,0,0,1,1.35.13,6.63,6.63,0,0,1,1.29.4,6.44,6.44,0,0,1,1.19.63,6.65,6.65,0,0,1,1.9,1.91,6.55,6.55,0,0,1,1,2.48A7.5,7.5,0,0,1,114.51,391.6Z"/><path d="M64,390.55a2.32,2.32,0,0,1-1.57.55,1.8,1.8,0,0,1-1.46-.62A2.19,2.19,0,0,1,60.4,389a2,2,0,0,1,.58-1.46,2.17,2.17,0,0,1,3,.06,2.22,2.22,0,0,1,.6,1.55A1.81,1.81,0,0,1,64,390.55Zm2.84-4.09a4.35,4.35,0,0,0-1.74-1.61,5.59,5.59,0,0,0-2.6-.58,5.15,5.15,0,0,0-3.59,1.31A4.4,4.4,0,0,0,57.45,389a4.61,4.61,0,0,0,1.33,3.46,4.53,4.53,0,0,0,3.3,1.31,4.92,4.92,0,0,0,2.8-.88,4.45,4.45,0,0,1-.88,2.4,2.47,2.47,0,0,1-2,.88,2.9,2.9,0,0,1-1.25-.32,6.23,6.23,0,0,1-.91-.51l-.36-.32-1.58,2.23A11.4,11.4,0,0,0,59,398a5.36,5.36,0,0,0,1.37.59,5.84,5.84,0,0,0,1.9.29,5.41,5.41,0,0,0,4-1.7,6.28,6.28,0,0,0,1.29-2.31,11.28,11.28,0,0,0,.47-3.41,9.7,9.7,0,0,0-1.19-5Z"/><path d="M157.85,391.7l-.14-.18a4.09,4.09,0,0,0-2.64-1.43l2.9-3.31v-2.19H149.3v2.7h4.44L151,390.5v2.32a6.7,6.7,0,0,1,1.88-.39,3.34,3.34,0,0,1,2,.52,1.76,1.76,0,0,1,.09,2.75,2.53,2.53,0,0,1-1.57.47,6.48,6.48,0,0,1-3.59-1.43l-1.29,2.51a8.36,8.36,0,0,0,4.76,1.66,5.79,5.79,0,0,0,3.86-1.26,4.33,4.33,0,0,0,1.51-3.5A4,4,0,0,0,157.85,391.7Z"/><path d="M109.41,437.89a2.11,2.11,0,0,1-1.51.57,2,2,0,0,1-1.52-.64,2.18,2.18,0,0,1-.61-1.53,1.82,1.82,0,0,1,.64-1.45,2.33,2.33,0,0,1,1.58-.55,1.91,1.91,0,0,1,1.49.61,2.22,2.22,0,0,1,.54,1.52A1.9,1.9,0,0,1,109.41,437.89Zm2.18-5a4.51,4.51,0,0,0-3.31-1.3,5.14,5.14,0,0,0-2.79.85,4.35,4.35,0,0,1,.88-2.4,2.48,2.48,0,0,1,2-.89,3.13,3.13,0,0,1,1.34.34,4,4,0,0,1,.92.52l.35.32,1.5-2.22a11.7,11.7,0,0,0-1.07-.78,6.45,6.45,0,0,0-1.38-.59,6.09,6.09,0,0,0-1.9-.3,5.32,5.32,0,0,0-4,1.7,5.82,5.82,0,0,0-1.31,2.32,11.31,11.31,0,0,0-.48,3.42,9.4,9.4,0,0,0,1.23,5,4.15,4.15,0,0,0,1.71,1.61,5.59,5.59,0,0,0,2.6.58,5.2,5.2,0,0,0,3.59-1.3,4.4,4.4,0,0,0,1.43-3.46,4.57,4.57,0,0,0-1.31-3.4Z"/><polygon points="98.03 343.14 98.03 345.83 100.73 345.83 100.73 357.3 103.76 357.3 103.76 343.14 98.03 343.14"/><path d="M111.13,354.46l2.56-2.65a14.54,14.54,0,0,0,2.06-2.56,4.38,4.38,0,0,0,.55-2.09,3.92,3.92,0,0,0-1.39-3.18,4.8,4.8,0,0,0-3.22-1.16,5.28,5.28,0,0,0-3,.79,7.67,7.67,0,0,0-2.18,2.32l2.53,1.51c.8-1.28,1.64-1.91,2.53-1.91a1.58,1.58,0,0,1,1.2.48,1.61,1.61,0,0,1,.46,1.18,2.61,2.61,0,0,1-.53,1.47,18,18,0,0,1-1.8,2L106.74,355v2.35h10v-2.84Z"/></g><g class="cls-24"><path class="cls-10" d="M173.05,644.64v.14a68.38,68.38,0,1,1,0-.14Z"/><path class="cls-19" d="M163.06,644.63c0,1.91-.1,3.82-.28,5.71a57.21,57.21,0,0,1-.84,5.66c-.37,1.87-.84,3.72-1.39,5.54s-1.2,3.62-1.93,5.39-1.54,3.48-2.44,5.17-1.88,3.31-2.94,4.9a59,59,0,0,1-7.25,8.83q-2,2-4.23,3.84a54.34,54.34,0,0,1-4.59,3.4c-1.59,1.06-3.22,2-4.91,2.94a59.24,59.24,0,0,1-10.55,4.37c-1.82.55-3.67,1-5.54,1.39a54,54,0,0,1-5.66.84q-2.85.28-5.71.28t-5.71-.28q-2.85-.29-5.65-.84c-1.87-.37-3.72-.84-5.55-1.39s-3.62-1.2-5.38-1.93S79,696.91,77.34,696s-3.32-1.88-4.9-2.94-3.12-2.19-4.6-3.4A58.43,58.43,0,0,1,53.43,672.1c-.9-1.69-1.72-3.42-2.45-5.17s-1.37-3.56-1.93-5.39-1-3.67-1.38-5.54a54,54,0,0,1-.84-5.66q-.28-2.85-.28-5.71c0-1.9.09-3.81.28-5.71a53.82,53.82,0,0,1,.84-5.65q.55-2.81,1.38-5.55c.56-1.82,1.2-3.62,1.93-5.38s1.55-3.48,2.45-5.17a58.28,58.28,0,0,1,10.18-13.73q2-2,4.23-3.84a52.91,52.91,0,0,1,4.6-3.4c1.58-1.06,3.22-2,4.9-2.94a48.74,48.74,0,0,1,5.17-2.45c1.76-.73,3.56-1.37,5.38-1.92a55.58,55.58,0,0,1,5.55-1.39c1.87-.37,3.76-.65,5.65-.84a57.15,57.15,0,0,1,5.71-.28q2.86,0,5.71.28c1.9.19,3.78.47,5.66.84a55.39,55.39,0,0,1,5.54,1.39,57.51,57.51,0,0,1,10.55,4.37q2.52,1.35,4.91,2.94a56.69,56.69,0,0,1,4.59,3.4q2.2,1.81,4.23,3.84a59,59,0,0,1,7.25,8.83q1.59,2.38,2.94,4.9a56.73,56.73,0,0,1,2.44,5.17c.73,1.76,1.37,3.56,1.93,5.38s1,3.68,1.39,5.55a54.21,54.21,0,0,1,.84,5.65C163,640.81,163.06,642.73,163.06,644.63Z"/><path class="cls-20" d="M104.8,644.64,48.61,683.37a68.23,68.23,0,0,1,14.9-93.07Z"/><path class="cls-21" d="M111.7,644.63a6.8,6.8,0,0,1-.14,1.35,7.37,7.37,0,0,1-.39,1.29,6.91,6.91,0,0,1-.64,1.2,7.37,7.37,0,0,1-.85,1,6.68,6.68,0,0,1-1.05.86,6.44,6.44,0,0,1-1.19.63,6.63,6.63,0,0,1-1.29.4,7.71,7.71,0,0,1-1.35.13,7.51,7.51,0,0,1-1.34-.13,6.52,6.52,0,0,1-1.3-.4,6.44,6.44,0,0,1-1.19-.63,6.31,6.31,0,0,1-1-.86,6.78,6.78,0,0,1-.86-1,7.67,7.67,0,0,1-.64-1.2,5.74,5.74,0,0,1-.47-4,7.37,7.37,0,0,1,.39-1.29,7.67,7.67,0,0,1,.64-1.2,6.78,6.78,0,0,1,.86-1,6.31,6.31,0,0,1,1-.86,6.44,6.44,0,0,1,1.19-.63,6.52,6.52,0,0,1,1.3-.4,7.51,7.51,0,0,1,1.34-.13,7.71,7.71,0,0,1,1.35.13,6.63,6.63,0,0,1,1.29.4,6.44,6.44,0,0,1,1.19.63,6.68,6.68,0,0,1,1,.86,7.37,7.37,0,0,1,.85,1,6.91,6.91,0,0,1,.64,1.2,7.37,7.37,0,0,1,.39,1.29A6.5,6.5,0,0,1,111.7,644.63Z"/><path d="M61.16,643.59a2.32,2.32,0,0,1-1.57.55,1.83,1.83,0,0,1-1.47-.62,2.2,2.2,0,0,1-.53-1.51,1.94,1.94,0,0,1,.58-1.46,2.17,2.17,0,0,1,3,.06,2.22,2.22,0,0,1,.6,1.55A1.82,1.82,0,0,1,61.16,643.59ZM64,639.5a4.42,4.42,0,0,0-1.74-1.61,5.59,5.59,0,0,0-2.6-.58,5.19,5.19,0,0,0-3.6,1.31,4.46,4.46,0,0,0-1.42,3.45,4.55,4.55,0,0,0,4.67,4.76,5,5,0,0,0,2.8-.87,4.36,4.36,0,0,1-.89,2.4,2.44,2.44,0,0,1-2,.88,2.9,2.9,0,0,1-1.26-.32,8,8,0,0,1-.9-.51l-.36-.33L55,650.32q.61.46,1.08.75a5.36,5.36,0,0,0,1.37.59,5.84,5.84,0,0,0,1.9.29,5.41,5.41,0,0,0,4-1.7,6.12,6.12,0,0,0,1.28-2.31,10.94,10.94,0,0,0,.48-3.41A9.77,9.77,0,0,0,64,639.5Z"/><path d="M155,644.74l-.13-.18a4.09,4.09,0,0,0-2.64-1.43l2.89-3.31v-2.19h-8.66v2.7h4.44l-2.73,3.2v2.33a6.77,6.77,0,0,1,1.89-.39,3.34,3.34,0,0,1,2,.52,1.66,1.66,0,0,1,.7,1.4,1.6,1.6,0,0,1-.61,1.35,2.59,2.59,0,0,1-1.57.47,6.48,6.48,0,0,1-3.59-1.43l-1.29,2.51a8.36,8.36,0,0,0,4.76,1.66,5.79,5.79,0,0,0,3.86-1.26,4.32,4.32,0,0,0,1.5-3.5A4,4,0,0,0,155,644.74Z"/><path d="M106.6,690.93a2.11,2.11,0,0,1-1.51.57,2,2,0,0,1-1.52-.65,2.1,2.1,0,0,1-.61-1.52,1.82,1.82,0,0,1,.64-1.45,2.33,2.33,0,0,1,1.58-.55,1.91,1.91,0,0,1,1.49.61,2.27,2.27,0,0,1,.54,1.52A1.9,1.9,0,0,1,106.6,690.93Zm2.18-5a4.51,4.51,0,0,0-3.31-1.3,5.14,5.14,0,0,0-2.79.85,4.27,4.27,0,0,1,.88-2.4,2.48,2.48,0,0,1,2-.89,3.09,3.09,0,0,1,1.33.34,4.25,4.25,0,0,1,.93.52l.35.32,1.5-2.22a10.6,10.6,0,0,0-1.08-.78,6.16,6.16,0,0,0-1.37-.59,6.09,6.09,0,0,0-1.9-.3,5.36,5.36,0,0,0-4,1.7,6,6,0,0,0-1.3,2.32,11.31,11.31,0,0,0-.48,3.42,9.49,9.49,0,0,0,1.22,5,4.27,4.27,0,0,0,1.71,1.61,5.63,5.63,0,0,0,2.61.58,5.2,5.2,0,0,0,3.59-1.3,4.42,4.42,0,0,0,1.42-3.46,4.59,4.59,0,0,0-1.31-3.35Z"/><polygon points="95.22 596.18 95.22 598.87 97.92 598.87 97.92 610.34 100.95 610.34 100.95 596.18 95.22 596.18"/><path d="M108.32,607.5l2.56-2.65a14.54,14.54,0,0,0,2.06-2.56,4.3,4.3,0,0,0,.55-2.1A3.91,3.91,0,0,0,112.1,597a4.82,4.82,0,0,0-3.22-1.16,5.28,5.28,0,0,0-3,.79A7.67,7.67,0,0,0,103.7,599l2.53,1.51c.8-1.28,1.64-1.91,2.53-1.91a1.58,1.58,0,0,1,1.2.48,1.61,1.61,0,0,1,.46,1.18,2.55,2.55,0,0,1-.54,1.47,16.18,16.18,0,0,1-1.79,2L103.93,608v2.35h10V607.5Z"/></g><g class="cls-25"><path class="cls-8" d="M175.86,886.43v.14a68.23,68.23,0,0,1-68.23,68.11h0a68.25,68.25,0,0,1,0-136.5h0a68.22,68.22,0,0,1,68.22,68.22v0Z"/><path class="cls-19" d="M165.87,886.43c0,1.91-.1,3.81-.28,5.71a56.58,56.58,0,0,1-.84,5.65c-.37,1.87-.84,3.72-1.39,5.55a56.44,56.44,0,0,1-1.93,5.38c-.73,1.76-1.54,3.49-2.44,5.17s-1.88,3.32-2.94,4.9a58.89,58.89,0,0,1-11.48,12.67q-2.22,1.81-4.59,3.4c-1.59,1.06-3.22,2-4.91,2.94a49.54,49.54,0,0,1-5.16,2.45,56.56,56.56,0,0,1-5.39,1.92,55.39,55.39,0,0,1-5.54,1.39,56.78,56.78,0,0,1-5.66.84c-1.9.19-3.8.28-5.71.28s-3.81-.09-5.71-.28a58.47,58.47,0,0,1-11.2-2.23c-1.82-.55-3.62-1.19-5.38-1.92s-3.49-1.55-5.17-2.45-3.32-1.88-4.9-2.94a58,58,0,0,1-16.07-16.07c-1.06-1.58-2-3.22-2.94-4.9a48.74,48.74,0,0,1-2.45-5.17c-.73-1.76-1.37-3.56-1.92-5.38a56.27,56.27,0,0,1-1.39-5.55c-.37-1.87-.65-3.76-.84-5.65s-.28-3.8-.28-5.71.09-3.81.28-5.71.47-3.79.84-5.66a55.39,55.39,0,0,1,1.39-5.54c.55-1.83,1.19-3.62,1.92-5.39A56.63,56.63,0,0,1,56.24,859q1.35-2.52,2.94-4.91c1.06-1.59,2.19-3.11,3.4-4.59A58.84,58.84,0,0,1,75.25,838c1.58-1.06,3.22-2,4.9-2.94a48.66,48.66,0,0,1,5.17-2.44c1.76-.73,3.56-1.37,5.38-1.93s3.68-1,5.55-1.39a53.82,53.82,0,0,1,5.65-.84q2.85-.29,5.71-.28c1.91,0,3.81.1,5.71.28a56.78,56.78,0,0,1,5.66.84c1.87.37,3.72.84,5.54,1.39s3.62,1.2,5.39,1.93a56.55,56.55,0,0,1,5.16,2.44q2.52,1.35,4.91,2.94c1.59,1.06,3.11,2.2,4.59,3.41a59.18,59.18,0,0,1,8.07,8.07c1.21,1.48,2.34,3,3.41,4.59s2,3.22,2.94,4.91a49.45,49.45,0,0,1,2.44,5.16,56.63,56.63,0,0,1,1.93,5.39c.55,1.83,1,3.67,1.39,5.54a54,54,0,0,1,.84,5.66C165.78,882.63,165.87,884.52,165.87,886.43Z"/><path class="cls-20" d="M175.86,886.43v.14a68.23,68.23,0,0,1-68.23,68.11V818.18a68.22,68.22,0,0,1,68.22,68.22v0Z"/><path class="cls-21" d="M114.51,886.43a6.7,6.7,0,0,1-.14,1.34,5.9,5.9,0,0,1-.39,1.3,6.48,6.48,0,0,1-.64,1.19,7.37,7.37,0,0,1-.85,1,6.31,6.31,0,0,1-1,.86,7.57,7.57,0,0,1-1.19.64,7.37,7.37,0,0,1-1.29.39,6.79,6.79,0,0,1-1.35.13,6.69,6.69,0,0,1-1.34-.13,7.47,7.47,0,0,1-1.3-.39,8,8,0,0,1-1.19-.64,7.15,7.15,0,0,1-1.9-1.9,8,8,0,0,1-.64-1.19,7.47,7.47,0,0,1-.39-1.3,6.69,6.69,0,0,1-.13-1.34,6.79,6.79,0,0,1,.13-1.35,7.37,7.37,0,0,1,.39-1.29,7.57,7.57,0,0,1,.64-1.19,6.68,6.68,0,0,1,.86-1,7.37,7.37,0,0,1,1-.85A6.48,6.48,0,0,1,105,880a7.47,7.47,0,0,1,1.3-.39,6.7,6.7,0,0,1,1.34-.14,6.8,6.8,0,0,1,1.35.14,7.37,7.37,0,0,1,1.29.39,5.93,5.93,0,0,1,1.19.64,6.37,6.37,0,0,1,1.9,1.9,6.62,6.62,0,0,1,1,2.48A7.22,7.22,0,0,1,114.51,886.43Z"/><path d="M64,885.38a2.32,2.32,0,0,1-1.57.55,1.8,1.8,0,0,1-1.46-.62,2.16,2.16,0,0,1-.54-1.51A2.08,2.08,0,0,1,64,882.41a2.19,2.19,0,0,1,.6,1.54A1.78,1.78,0,0,1,64,885.38Zm2.84-4.09a4.35,4.35,0,0,0-1.74-1.61,5.58,5.58,0,0,0-2.6-.57,5.16,5.16,0,0,0-3.59,1.3,4.44,4.44,0,0,0-1.43,3.46,4.57,4.57,0,0,0,1.33,3.45,4.52,4.52,0,0,0,3.3,1.31,4.92,4.92,0,0,0,2.8-.88,4.35,4.35,0,0,1-.88,2.4,2.48,2.48,0,0,1-2,.89,2.87,2.87,0,0,1-1.25-.33,6.23,6.23,0,0,1-.91-.51l-.36-.32-1.58,2.23c.4.31.76.56,1.07.76a5.7,5.7,0,0,0,1.37.58,5.56,5.56,0,0,0,1.9.3,5.41,5.41,0,0,0,4-1.7,6.24,6.24,0,0,0,1.29-2.32,11.28,11.28,0,0,0,.47-3.41,9.81,9.81,0,0,0-1.22-5Z"/><path d="M157.85,886.53l-.14-.18a4.14,4.14,0,0,0-2.64-1.43l2.9-3.31v-2.18H149.3v2.69h4.44L151,885.33v2.32a7.14,7.14,0,0,1,1.88-.38,3.3,3.3,0,0,1,2,.51,1.62,1.62,0,0,1,.71,1.4,1.59,1.59,0,0,1-.62,1.35,2.53,2.53,0,0,1-1.57.47,6.48,6.48,0,0,1-3.59-1.43l-1.29,2.51a8.3,8.3,0,0,0,4.76,1.67,5.75,5.75,0,0,0,3.86-1.27,4.33,4.33,0,0,0,1.51-3.49A4,4,0,0,0,157.85,886.53Z"/><path d="M109.41,932.72a2.11,2.11,0,0,1-1.51.57,2,2,0,0,1-1.52-.64,2.14,2.14,0,0,1-.61-1.53,1.82,1.82,0,0,1,.64-1.45,2.33,2.33,0,0,1,1.58-.55,1.91,1.91,0,0,1,1.49.61,2.22,2.22,0,0,1,.54,1.52A1.9,1.9,0,0,1,109.41,932.72Zm2.18-5a4.59,4.59,0,0,0-3.31-1.3,5.14,5.14,0,0,0-2.79.85,4.35,4.35,0,0,1,.88-2.4,2.47,2.47,0,0,1,2-.88,3.12,3.12,0,0,1,1.34.33,4,4,0,0,1,.92.52l.35.32,1.5-2.22a10,10,0,0,0-1.07-.77,7,7,0,0,0-1.38-.6,6.44,6.44,0,0,0-1.9-.29,5.32,5.32,0,0,0-4,1.7,5.79,5.79,0,0,0-1.31,2.31,11.63,11.63,0,0,0-.48,3.42,9.4,9.4,0,0,0,1.23,5,4.15,4.15,0,0,0,1.71,1.61,5.33,5.33,0,0,0,2.6.58,5.14,5.14,0,0,0,3.59-1.3,4.37,4.37,0,0,0,1.43-3.45,4.61,4.61,0,0,0-1.31-3.41Z"/><polygon points="98.03 837.97 98.03 840.66 100.73 840.66 100.73 852.14 103.76 852.14 103.76 837.97 98.03 837.97"/><path d="M111.13,849.3l2.56-2.66a14.1,14.1,0,0,0,2.06-2.56,4.38,4.38,0,0,0,.55-2.09,3.89,3.89,0,0,0-1.39-3.17,4.81,4.81,0,0,0-3.22-1.17,5.36,5.36,0,0,0-3,.79,7.82,7.82,0,0,0-2.18,2.33l2.53,1.5c.8-1.27,1.64-1.91,2.53-1.91a1.61,1.61,0,0,1,1.66,1.56V842a2.63,2.63,0,0,1-.53,1.47,18,18,0,0,1-1.8,2l-4.15,4.25v2.36h10V849.3Z"/></g></svg>